P3
16 16
255
114 114 114 112 112 112 112 112 112 114 114 114 117 117 117 112 112 1
114 114 114 115 115 115 115 115 115 114 114 114 112 112 112 117 117 1
114 114 114 112 112 112 112 112 112 114 114 114 116 116 116 253 253 2
255 255 255 249 249 249 255 255 255 252 252 252 255 255 255 252 252 2
252 252 252 255 255 255 252 252 252 255 255 255 249 249 249 255 255 2
253 253 253 116 116 116 106 106 106 255 255 255 252 252 252 255 255 2
255 255 255 255 255 255 255 255 255 255 255 255 255 255 255 255 255 2
255 255 255 255 255 255 255 255 255 252 252 252 255 255 255 106 106 1
120 120 120 252 252 252 255 255 255 255 255 255 249 249 249 255 255 2
255 255 255 254 254 254 254 254 254 255 255 255 255 255 255 249 249 2
255 255 255 255 255 255 252 252 252 120 120 120 108 108 108 251 251 2
255 255 255 254 254 254 253 253 253 255 255 255 250 250 250 255 255 2
255 255 255 250 250 250 255 255 255 253 253 253 254 254 254 255 255 2
251 251 251 108 108 108 119 119 119 255 255 255 253 253 253 252 252 2
255 255 255 253 253 253 253 253 253 255 255 255 255 255 255 253 253 2
253 253 253 255 255 255 252 252 252 253 253 253 255 255 255 119 119 1
110 110 110 254 254 254 255 255 255 255 255 255 252 252 252 254 254 2
255 255 255 250 250 250 250 250 250 255 255 255 254 254 254 252 252 2
255 255 255 255 255 255 254 254 254 110 110 110 115 115 115 252 252 2
255 255 255 255 255 255 254 254 254 255 255 255 252 252 252 255 255 2
255 255 255 252 252 252 255 255 255 254 254 254 255 255 255 255 255 2
252 252 252 115 115 115 115 115 115 252 252 252 255 255 255 255 255 2
254 254 254 255 255 255 252 252 252 255 255 255 255 255 255 252 252 2
255 255 255 254 254 254 255 255 255 255 255 255 252 252 252 115 115 1
110 110 110 254 254 254 255 255 255 255 255 255 252 252 252 254 254 2
255 255 255 250 250 250 250 250 250 255 255 255 254 254 254 252 252 2
255 255 255 255 255 255 254 254 254 110 110 110 119 119 119 255 255 2
253 253 253 252 252 252 255 255 255 253 253 253 253 253 253 255 255 2
255 255 255 253 253 253 253 253 253 255 255 255 252 252 252 253 253 2
255 255 255 119 119 119 108 108 108 251 251 251 255 255 255 254 254 2
253 253 253 255 255 255 250 250 250 255 255 255 255 255 255 250 250 2
255 255 255 253 253 253 254 254 254 255 255 255 251 251 251 108 108 1
120 120 120 252 252 252 255 255 255 255 255 255 249 249 249 255 255 2
255 255 255 254 254 254 254 254 254 255 255 255 255 255 255 249 249 2
255 255 255 255 255 255 252 252 252 120 120 120 106 106 106 255 255 2
252 252 252 255 255 255 255 255 255 255 255 255 255 255 255 255 255 2
255 255 255 255 255 255 255 255 255 255 255 255 255 255 255 252 252 2
255 255 255 106 106 106 116 116 116 253 253 253 255 255 255 249 249 2
255 255 255 252 252 252 255 255 255 252 252 252 252 252 252 255 255 2
252 252 252 255 255 255 249 249 249 255 255 255 253 253 253 116 116 1
114 114 114 112 112 112 112 112 112 114 114 114 117 117 117 112 112 1
114 114 114 115 115 115 115 115 115 114 114 114 112 112 112 117 117 1
114 114 114 112 112 112 112 112 112 114 114 1
