P3
16 16
255
114 114 114 115 115 115 111 111 111 112 112 112 114 114 114 112 112 1
112 112 112 116 116 116 116 116 116 112 112 112 112 112 112 114 114 1
112 112 112 111 111 111 115 115 115 114 114 114 114 114 114 250 250 2
255 255 255 255 255 255 253 253 253 255 255 255 250 250 250 255 255 2
255 255 255 250 250 250 255 255 255 253 253 253 255 255 255 255 255 2
250 250 250 114 114 114 112 112 112 255 255 255 251 251 251 253 253 2
254 254 254 251 251 251 255 255 255 251 251 251 251 251 251 255 255 2
251 251 251 254 254 254 253 253 253 251 251 251 255 255 255 112 112 1
116 116 116 255 255 255 255 255 255 2 2 2 0 0 0 0 0 0 254 254 254 255 255 2
255 255 255 254 254 254 0 0 0 0 0 0 2 2 2 255 255 255 255 255 255 116 116 1
107 107 107 254 254 254 255 255 255 0 0 0 3 3 3 0 0 0 255 255 255 255 255 2
255 255 255 255 255 255 0 0 0 3 3 3 0 0 0 255 255 255 254 254 254 107 107 1
119 119 119 255 255 255 248 248 248 2 2 2 2 2 2 6 6 6 249 249 249 255 255 2
255 255 255 249 249 249 6 6 6 2 2 2 2 2 2 248 248 248 255 255 255 119 119 1
109 109 109 255 255 255 255 255 255 3 3 3 0 0 0 2 2 2 255 255 255 251 251 2
251 251 251 255 255 255 2 2 2 0 0 0 3 3 3 255 255 255 255 255 255 109 109 1
113 113 113 255 255 255 252 252 252 1 1 1 2 2 2 0 0 0 255 255 255 255 255 2
255 255 255 255 255 255 0 0 0 2 2 2 1 1 1 252 252 252 255 255 255 113 113 1
113 113 113 255 255 255 252 252 252 1 1 1 2 2 2 0 0 0 255 255 255 255 255 2
255 255 255 255 255 255 0 0 0 2 2 2 1 1 1 252 252 252 255 255 255 113 113 1
109 109 109 255 255 255 255 255 255 3 3 3 0 0 0 2 2 2 255 255 255 251 251 2
251 251 251 255 255 255 2 2 2 0 0 0 3 3 3 255 255 255 255 255 255 109 109 1
119 119 119 255 255 255 248 248 248 2 2 2 2 2 2 6 6 6 249 249 249 255 255 2
255 255 255 249 249 249 6 6 6 2 2 2 2 2 2 248 248 248 255 255 255 119 119 1
107 107 107 254 254 254 255 255 255 0 0 0 3 3 3 0 0 0 255 255 255 255 255 2
255 255 255 255 255 255 0 0 0 3 3 3 0 0 0 255 255 255 254 254 254 107 107 1
116 116 116 255 255 255 255 255 255 2 2 2 0 0 0 0 0 0 254 254 254 255 255 2
255 255 255 254 254 254 0 0 0 0 0 0 2 2 2 255 255 255 255 255 255 116 116 1
112 112 112 255 255 255 251 251 251 253 253 253 254 254 254 251 251 2
255 255 255 251 251 251 251 251 251 255 255 255 251 251 251 254 254 2
253 253 253 251 251 251 255 255 255 112 112 112 114 114 114 250 250 2
255 255 255 255 255 255 253 253 253 255 255 255 250 250 250 255 255 2
255 255 255 250 250 250 255 255 255 253 253 253 255 255 255 255 255 2
250 250 250 114 114 114 114 114 114 115 115 115 111 111 111 112 112 1
114 114 114 112 112 112 112 112 112 116 116 116 116 116 116 112 112 1
112 112 112 114 114 114 112 112 112 111 111 111 115 115 115 114 114 1
