P3
16 16
255
114 114 114 112 112 112 112 112 112 114 114 114 117 117 117 112 112 1
114 114 114 115 115 115 116 116 116 112 112 112 112 112 112 114 114 1
112 112 112 111 111 111 115 115 115 114 114 114 116 116 116 253 253 2
255 255 255 249 249 249 255 255 255 252 252 252 255 255 255 252 252 2
255 255 255 250 250 250 255 255 255 253 253 253 255 255 255 255 255 2
250 250 250 114 114 114 106 106 106 255 255 255 252 252 252 255 255 2
255 255 255 255 255 255 255 255 255 255 255 255 251 251 251 255 255 2
251 251 251 254 254 254 253 253 253 251 251 251 255 255 255 112 112 1
120 120 120 252 252 252 255 255 255 255 255 255 249 249 249 255 255 2
255 255 255 254 254 254 255 255 255 254 254 254 0 0 0 0 0 0 2 2 2 255 255 2
255 255 255 116 116 116 108 108 108 251 251 251 255 255 255 254 254 2
253 253 253 255 255 255 250 250 250 255 255 255 255 255 255 255 255 2
0 0 0 3 3 3 0 0 0 255 255 255 254 254 254 107 107 107 119 119 119 255 255 2
253 253 253 252 252 252 255 255 255 253 253 253 253 253 253 255 255 2
255 255 255 249 249 249 6 6 6 2 2 2 2 2 2 248 248 248 255 255 255 119 119 1
110 110 110 254 254 254 255 255 255 255 255 255 252 252 252 254 254 2
255 255 255 250 250 250 251 251 251 255 255 255 2 2 2 0 0 0 3 3 3 255 255 2
255 255 255 109 109 109 115 115 115 252 252 252 255 255 255 255 255 2
254 254 254 255 255 255 252 252 252 255 255 255 255 255 255 255 255 2
0 0 0 2 2 2 1 1 1 252 252 252 255 255 255 113 113 113 115 115 115 252 252 2
255 255 255 255 255 255 254 254 254 255 255 255 252 252 252 255 255 2
255 255 255 255 255 255 0 0 0 2 2 2 1 1 1 252 252 252 255 255 255 113 113 1
110 110 110 254 254 254 255 255 255 255 255 255 252 252 252 254 254 2
255 255 255 250 250 250 251 251 251 255 255 255 2 2 2 0 0 0 3 3 3 255 255 2
255 255 255 109 109 109 119 119 119 255 255 255 253 253 253 252 252 2
255 255 255 253 253 253 253 253 253 255 255 255 255 255 255 249 249 2
6 6 6 2 2 2 2 2 2 248 248 248 255 255 255 119 119 119 108 108 108 251 251 2
255 255 255 254 254 254 253 253 253 255 255 255 250 250 250 255 255 2
255 255 255 255 255 255 0 0 0 3 3 3 0 0 0 255 255 255 254 254 254 107 107 1
120 120 120 252 252 252 255 255 255 255 255 255 249 249 249 255 255 2
255 255 255 254 254 254 255 255 255 254 254 254 0 0 0 0 0 0 2 2 2 255 255 2
255 255 255 116 116 116 106 106 106 255 255 255 252 252 252 255 255 2
255 255 255 255 255 255 255 255 255 255 255 255 251 251 251 255 255 2
251 251 251 254 254 254 253 253 253 251 251 251 255 255 255 112 112 1
116 116 116 253 253 253 255 255 255 249 249 249 255 255 255 252 252 2
255 255 255 252 252 252 255 255 255 250 250 250 255 255 255 253 253 2
255 255 255 255 255 255 250 250 250 114 114 114 114 114 114 112 112 1
112 112 112 114 114 114 117 117 117 112 112 112 114 114 114 115 115 1
116 116 116 112 112 112 112 112 112 114 114 114 112 112 112 111 111 1
115 115 115 114 114 1
