P3
16 16
255
111 111 111 112 112 112 112 112 112 113 113 113 111 111 111 115 115 1
116 116 116 111 111 111 111 111 111 116 116 116 115 115 115 111 111 1
113 113 113 112 112 112 112 112 112 111 111 111 114 114 114 255 255 2
253 253 253 253 253 253 255 255 255 254 254 254 248 248 248 255 255 2
255 255 255 248 248 248 254 254 254 255 255 255 253 253 253 253 253 2
255 255 255 114 114 114 116 116 116 251 251 251 255 255 255 255 255 2
255 255 255 254 254 254 255 255 255 253 253 253 253 253 253 255 255 2
254 254 254 255 255 255 255 255 255 255 255 255 251 251 251 116 116 1
112 112 112 252 252 252 254 254 254 252 252 252 254 254 254 255 255 2
255 255 255 0 0 0 0 0 0 255 255 255 255 255 255 254 254 254 252 252 2
254 254 254 252 252 252 112 112 112 111 111 111 255 255 255 255 255 2
255 255 255 255 255 255 254 254 254 0 0 0 255 255 255 255 255 255 0 0 0 254 254 2
255 255 255 255 255 255 255 255 255 255 255 255 111 111 111 114 114 1
250 250 250 255 255 255 249 249 249 0 0 0 4 4 4 255 255 255 254 254 2
254 254 254 255 255 255 4 4 4 0 0 0 249 249 249 255 255 255 250 250 2
114 114 114 113 113 113 255 255 255 255 255 255 4 4 4 255 255 255 250 250 2
0 0 0 0 0 0 0 0 0 0 0 0 250 250 250 255 255 255 4 4 4 255 255 255 255 255 2
113 113 113 112 112 112 255 255 255 0 0 0 254 254 254 255 255 255 252 252 2
3 3 3 254 254 254 254 254 254 3 3 3 252 252 252 255 255 255 254 254 2
0 0 0 255 255 255 112 112 112 112 112 112 255 255 255 0 0 0 254 254 2
255 255 255 252 252 252 3 3 3 254 254 254 254 254 254 3 3 3 252 252 2
255 255 255 254 254 254 0 0 0 255 255 255 112 112 112 113 113 113 255 255 2
255 255 255 4 4 4 255 255 255 250 250 250 0 0 0 0 0 0 0 0 0 0 0 0 250 250 2
255 255 255 4 4 4 255 255 255 255 255 255 113 113 113 114 114 114 250 250 2
255 255 255 249 249 249 0 0 0 4 4 4 255 255 255 254 254 254 254 254 2
255 255 255 4 4 4 0 0 0 249 249 249 255 255 255 250 250 250 114 114 1
111 111 111 255 255 255 255 255 255 255 255 255 255 255 255 254 254 2
0 0 0 255 255 255 255 255 255 0 0 0 254 254 254 255 255 255 255 255 2
255 255 255 255 255 255 111 111 111 112 112 112 252 252 252 254 254 2
252 252 252 254 254 254 255 255 255 255 255 255 0 0 0 0 0 0 255 255 2
255 255 255 254 254 254 252 252 252 254 254 254 252 252 252 112 112 1
116 116 116 251 251 251 255 255 255 255 255 255 255 255 255 254 254 2
255 255 255 253 253 253 253 253 253 255 255 255 254 254 254 255 255 2
255 255 255 255 255 255 251 251 251 116 116 116 114 114 114 255 255 2
253 253 253 253 253 253 255 255 255 254 254 254 248 248 248 255 255 2
255 255 255 248 248 248 254 254 254 255 255 255 253 253 253 253 253 2
255 255 255 114 114 114 111 111 111 112 112 112 112 112 112 113 113 1
111 111 111 115 115 115 116 116 116 111 111 111 111 111 111 116 116 1
115 115 115 111 111 111 113 113 113 112 112 112 112 112 112 111 111 1
