P3
16 16
255
114 114 114 117 117 117 111 111 111 114 114 114 115 115 115 110 110 1
109 109 109 117 117 117 115 115 115 110 110 110 110 110 110 115 115 1
115 115 115 108 108 108 114 114 114 114 114 114 107 107 107 254 254 2
255 255 255 248 248 248 255 255 255 255 255 255 255 255 255 254 254 2
255 255 255 254 254 254 255 255 255 255 255 255 253 253 253 255 255 2
255 255 255 110 110 110 118 118 118 255 255 255 255 255 255 255 255 2
254 254 254 255 255 255 255 255 255 251 251 251 253 253 253 255 255 2
255 255 255 251 251 251 255 255 255 253 253 253 254 254 254 116 116 1
107 107 107 255 255 255 0 0 0 253 253 253 255 255 255 255 255 255 246 246 2
255 255 255 255 255 255 0 0 0 0 0 0 4 4 4 0 0 0 0 0 0 254 254 254 112 112 1
119 119 119 251 251 251 2 2 2 252 252 252 255 255 255 253 253 253 255 255 2
251 251 251 253 253 253 1 1 1 255 255 255 251 251 251 255 255 255 3 3 3 255 255 2
115 115 115 111 111 111 253 253 253 0 0 0 255 255 255 255 255 255 251 251 2
255 255 255 254 254 254 255 255 255 7 7 7 246 246 246 255 255 255 255 255 2
0 0 0 249 249 249 113 113 113 116 116 116 254 254 254 4 4 4 247 247 2
253 253 253 255 255 255 252 252 252 255 255 255 250 250 250 0 0 0 255 255 2
255 255 255 252 252 252 5 5 5 255 255 255 114 114 114 113 113 113 255 255 2
0 0 0 255 255 255 255 255 255 255 255 255 253 253 253 255 255 255 255 255 2
0 0 0 255 255 255 253 253 253 255 255 255 0 0 0 255 255 255 113 113 1
111 111 111 255 255 255 0 0 0 255 255 255 255 255 255 253 253 253 251 251 2
255 255 255 255 255 255 0 0 0 255 255 255 253 253 253 255 255 255 0 0 0 255 255 2
113 113 113 115 115 115 254 254 254 5 5 5 253 253 253 255 255 255 255 255 2
253 253 253 254 254 254 250 250 250 0 0 0 255 255 255 255 255 255 252 252 2
5 5 5 255 255 255 114 114 114 113 113 113 251 251 251 0 0 0 255 255 2
255 255 255 251 251 251 255 255 255 255 255 255 255 255 255 7 7 7 246 246 2
255 255 255 255 255 255 0 0 0 249 249 249 113 113 113 114 114 114 253 253 2
5 5 5 254 254 254 255 255 255 251 251 251 255 255 255 254 254 254 253 253 2
1 1 1 255 255 255 251 251 251 255 255 255 3 3 3 255 255 255 115 115 1
111 111 111 255 255 255 0 0 0 0 0 0 0 0 0 3 3 3 0 0 0 255 255 255 255 255 2
0 0 0 0 0 0 4 4 4 0 0 0 0 0 0 254 254 254 112 112 112 114 114 114 254 254 2
255 255 255 255 255 255 253 253 253 252 252 252 255 255 255 255 255 2
253 253 253 255 255 255 255 255 255 251 251 251 255 255 255 253 253 2
254 254 254 116 116 116 108 108 108 255 255 255 255 255 255 251 251 2
255 255 255 255 255 255 252 252 252 252 252 252 255 255 255 254 254 2
255 255 255 255 255 255 253 253 253 255 255 255 255 255 255 110 110 1
114 114 114 117 117 117 107 107 107 114 114 114 113 113 113 110 110 1
111 111 111 117 117 117 115 115 115 110 110 110 110 110 110 115 115 1
115 115 115 108 108 108 114 114 114 114 114 1
